Simulation
nRows=32
nColumns=15
endheader
time  TH_x TH_y TH_z SC_y  SC_z  SC_x  AC_y  AC_z  AC_x  GH_y  GH_z  GH_yy  EL_x  PS_y
2.681  0.000000  0.000000  0.000000  -22.782253654427652  7.822908860348398  -3.3972997457165093  48.14490175576263  8.355327747365536  2.57078567683848  -1.8217145598443927  6.5603281242990805  37.95669975286075  15.857794514993921  120.000000
2.73462  0.000000  0.000000  0.000000  -22.730579230712486  7.464913011562483  -3.329845723786282  48.52338389428916  8.906938281134352  2.616494398027002  3.575932251585664  4.385178708500023  36.03740274856287  16.933082208681185  120.000000
2.78824  0.000000  0.000000  0.000000  -22.96425104468847  7.13711712919066  -3.120568147321529  48.983121199947945  9.513705165439148  2.649401260515459  16.82819419910164  2.720661055424747  25.31688851639968  17.80511025224385  120.000000
2.84186  0.000000  0.000000  0.000000  -23.378395288308408  6.838805893069085  -2.8219974793376505  49.47807969671865  10.140688900443903  2.662254623106108  46.0268472905248  1.769263276226065  -2.229597014056607  18.4297267725722  120.000000
2.89548  0.000000  0.000000  0.000000  -23.849298529416277  6.562820766079565  -2.481090809804402  49.982073746965696  10.752432898249332  2.6561827829973925  81.85152892095986  1.6804821715249074  -37.129773423152244  18.79983504240677  120.000000
2.9491  0.000000  0.000000  0.000000  -24.2650197939723  6.298623884316982  -2.1401842460767386  50.48514178530512  11.31307367493263  2.6400057218509834  101.62814245120639  1.9510059426706794  -56.53123876818318  18.938471810479047  120.000000
3.00272  0.000000  0.000000  0.000000  -24.553864705518556  6.038752054351437  -1.8344122919289294  50.982503813255406  11.797326423852653  2.625483991132921  109.45492635817983  2.124792292881703  -64.37434692211498  18.89205004034472  120.000000
3.05634  0.000000  0.000000  0.000000  -24.688201157653268  5.783433850445588  -1.5976912443835798  51.467279805156174  12.201127214734408  2.627819384091222  111.08638451725113  2.102432816045919  -66.28575355201238  18.722234304031968  120.000000
3.10996  0.000000  0.000000  0.000000  -24.676035323673744  5.537407305019495  -1.4535702343681463  51.929408858840574  12.5295190866615  2.6587241551961323  108.06469916046241  1.9205194770735794  -63.70539191435535  18.493650404682676  120.000000
3.16358  0.000000  0.000000  0.000000  -24.543298686922604  5.30472595727789  -1.4055446428428684  52.36135691176185  12.782694125987105  2.721583699226124  99.76549280020286  1.6702441108619945  -55.92588175108898  18.260671025042434  120.000000
3.2172  0.000000  0.000000  0.000000  -24.32201182727047  5.0888287799499645  -1.4444910389723493  52.75938198483788  12.958148426721618  2.815791528519493  85.12950154036584  1.4777808560479082  -41.82385789145638  18.056564912247516  120.000000
3.27082  0.000000  0.000000  0.000000  -24.04820615433564  4.8951320385930694  -1.555319792104353  53.118528178397675  13.057026463840199  2.9365804422754516  66.30413382026967  1.4651518822157623  -23.503098737112605  17.887935966474544  120.000000
3.32444  0.000000  0.000000  0.000000  -23.755688648709402  4.729562979243326  -1.7257423514879298  53.433448526352315  13.087500654751594  3.0790298599263535  49.690952988850555  1.6695867851430732  -7.339397833110132  17.743287635486666  120.000000
3.37806  0.000000  0.000000  0.000000  -23.46906073921935  4.594882499022736  -1.9487382115355187  53.70218555080255  13.060601340054133  3.2397184829925743  38.857691389630794  2.0348064804888835  3.1112798431232593  17.60777333475839  120.000000
3.43168  0.000000  0.000000  0.000000  -23.20145769500672  4.490649360695088  -2.2209690963396644  53.92515153667006  12.987718246560936  3.414035054301079  32.84212351562689  2.4965802170252656  8.812620697082076  17.473043223818845  120.000000
3.4853  0.000000  0.000000  0.000000  -22.956896494239707  4.413365985061539  -2.5414219700471787  54.10112812999309  12.87855925453867  3.5968745274049563  29.75811087507393  3.0210424743513693  11.64668813107117  17.338978569418895  120.000000
3.53892  0.000000  0.000000  0.000000  -22.73141526747522  4.356389789919955  -2.910576522315767  54.224838875516795  12.738240356227458  3.7850352382414707  28.21757534400345  3.5951984153846506  12.997029906988661  17.21150868071889  120.000000
3.59254  0.000000  0.000000  0.000000  -22.513991980838963  4.30932605131495  -3.3303508116268334  54.28825254055204  12.566685436701244  3.97842247453952  27.33934934028886  4.215336678416678  13.741483103231934  17.095599996281106  120.000000
3.64616  0.000000  0.000000  0.000000  -22.286919529441985  4.261488682165614  -3.804132582524291  54.286161693639464  12.361433381778015  4.177820161461003  26.59740067630666  4.88315566438608  14.404347516287554  16.989126330251384  120.000000
3.69978  0.000000  0.000000  0.000000  -22.027480026930434  4.2057992780676745  -4.3371204784017205  54.22110962196157  12.12157324555839  4.383152863214447  25.698056293701587  5.607084959469541  15.277080614738585  16.87954511085864  120.000000
3.7534  0.000000  0.000000  0.000000  -21.712899503247623  4.139867142298578  -4.9337765231487625  54.10232358011043  11.850525043091903  4.59275775858321  24.488250249602633  6.404970322354869  16.50418411112462  16.74511084385747  120.000000
3.80702  0.000000  0.000000  0.000000  -21.330636886543314  4.06292159756201  -5.592166047274938  53.93772115654266  11.557742477059081  4.806089080938564  22.89613705289174  7.306935608113978  18.134571815028004  16.5575060505743  120.000000
3.86064  0.000000  0.000000  0.000000  -20.884235075259376  3.974326205780064  -6.304210075085705  53.73335629309553  11.256119473690635  5.025791854992024  20.953636457385105  8.356028532382686  20.09465185359504  16.28868451370227  120.000000
3.91426  0.000000  0.000000  0.000000  -20.389984010579273  3.870538956171939  -7.062575873191665  53.49800755901231  10.954222794119314  5.258045565044825  18.7772667824819  9.601573885260242  22.20462459628144  15.918333148491595  120.000000
3.96788  0.000000  0.000000  0.000000  -19.868656116679016  3.746462961038473  -7.864648168065429  53.24732707303654  10.65557248685324  5.51167130925313  16.494371233615897  11.093252736451834  24.250183441319525  15.436798155199247  120.000000
4.0215  0.000000  0.000000  0.000000  -19.339427090559425  3.6004329718915145  -8.71116780947995  53.00698129535592  10.368168150600855  5.7991215850672075  14.183121765321513  12.883505360598386  26.05013676045675  14.84725452998269  120.000000
4.07512  0.000000  0.000000  0.000000  -18.815898912835817  3.433482013567613  -9.599524763312536  52.806824089825696  10.110356196340138  6.1366764030130225  11.861946368819254  15.028790514066491  27.49264957881479  14.171155686700327  120.000000
4.1287400000000005  0.000000  0.000000  0.000000  -18.31006148617039  3.2482994789775335  -10.518182436434731  52.67375157958835  9.90847399508856  6.539059332096654  9.528806673205175  17.583340139640107  28.52868524883049  13.456694288184073  120.000000
4.18236  0.000000  0.000000  0.000000  -17.836257278365462  3.0529803624543126  -11.447836380553563  52.62849403782902  9.792183288286292  7.011232872104213  7.201414453619777  20.586693855948912  29.14191294528857  12.776161644870427  120.000000
4.23598  0.000000  0.000000  0.000000  -17.418314380488322  2.8595771452840077  -12.362010379058784  52.6801122659106  9.791763826990795  7.5449391018152525  4.936664598744918  24.05075238726738  29.32010559172869  12.205043005880697  120.000000
4.2896  0.000000  0.000000  0.000000  -17.09418472414666  2.6838984565924515  -13.229288473058133  52.82341585509104  9.934943868133201  8.120460214479111  2.8290062107519742  27.946876353308745  29.042827784494996  11.794668294192894  120.000000
4.3432200000000005  0.000000  0.000000  0.000000  -16.91557248122608  2.542780518577219  -14.0236421781302  53.04521564030288  10.24839989250454  8.710598803975712  0.9979022410412771  32.19998631386082  28.279082857183845  11.549838345811624  120.000000
